<svg width="309" height="351" viewBox="0 0 309 351" fill="none" xmlns="http://www.w3.org/2000/svg">
<g clip-path="url(#clip0_6144_10300)">
<path d="M183.626 347H80.3917C74.8689 347 70.3917 342.523 70.3917 337V256.011C-61.1654 162.266 21.9226 -11.4418 153.463 5.1023C249.598 17.1935 267.936 88.2786 265.628 122.285L300.999 176.885C309.62 190.192 300.069 207.759 284.214 207.759H275.628C270.106 207.759 265.628 212.236 265.628 217.759V260.477C265.628 277.046 252.197 290.477 235.628 290.477H203.626C198.103 290.477 193.626 294.955 193.626 300.477V337C193.626 342.523 189.149 347 183.626 347Z" fill="#0C2746" stroke="#0C2746" stroke-width="8"/>
<path d="M95.2221 133.474H85.4158C83.9476 133.474 82.5791 134.264 81.8445 135.536L76.9413 144.028C76.2071 145.3 76.2071 146.88 76.9413 148.152L81.8448 156.645C82.5791 157.916 83.9476 158.706 85.4158 158.706H95.2221C96.6902 158.706 98.0584 157.916 98.7934 156.645L103.696 148.152C104.431 146.88 104.431 145.3 103.696 144.028L98.7934 135.536C98.0587 134.264 96.6902 133.474 95.2221 133.474ZM94.5205 153.368H86.1169L81.9157 146.09L86.1173 138.813H94.5205L98.7222 146.09L94.5205 153.368Z" fill="#EAEADF"/>
<path d="M72.5685 106.703C71.9051 107.836 71.2666 108.984 70.6658 110.142C69.9867 111.451 70.4971 113.062 71.8058 113.741C72.1987 113.945 72.6187 114.041 73.033 114.041C73.9979 114.041 74.9297 113.516 75.4049 112.601C75.8611 111.721 76.3395 110.847 76.836 109.982C76.946 109.99 77.0563 109.994 77.167 109.994H90.6813C92.3455 109.994 93.8963 109.099 94.7284 107.658L101.485 95.9541C102.318 94.5126 102.318 92.7217 101.485 91.2805L98.6656 86.397C99.7841 85.635 100.923 84.9 102.076 84.2074C103.339 83.4475 103.747 81.8074 102.988 80.5442C102.228 79.2811 100.588 78.8725 99.3251 79.632C98.1997 80.3086 97.086 81.0233 95.9901 81.7622L94.7284 79.5768C93.8963 78.1357 92.3455 77.2402 90.6813 77.2402H77.167C75.5027 77.2402 73.952 78.1357 73.1199 79.5768L66.3627 91.2802C65.5302 92.7217 65.5302 94.5126 66.3627 95.9538L72.5685 106.703ZM77.551 82.579H90.2969L96.6696 93.6171L90.2969 104.656H77.551L71.1783 93.6171L77.551 82.579Z" fill="#EAEADF"/>
<path d="M150.38 179.366H155.415C158.289 179.366 160.628 177.027 160.628 174.153V161.413C160.628 158.792 158.681 156.622 156.158 156.259L165.204 140.592C166.329 138.643 167.241 136.58 167.915 134.461C168.362 133.056 167.586 131.555 166.181 131.108C164.777 130.662 163.274 131.438 162.828 132.843C162.27 134.597 161.514 136.306 160.581 137.922L150.028 156.2H141.481V138.271C147.631 137.029 152.276 131.584 152.276 125.074C152.276 117.65 146.236 111.61 138.812 111.61C131.388 111.61 125.348 117.65 125.348 125.074C125.348 131.584 129.993 137.028 136.142 138.271V156.2H127.595L117.043 137.922C112.499 130.052 112.499 120.655 117.043 112.785C121.586 104.915 129.724 100.217 138.812 100.217C152.97 100.217 162.046 110.976 163.694 121.604C163.92 123.061 165.285 124.058 166.741 123.833C168.198 123.607 169.196 122.243 168.97 120.786C167.885 113.791 164.382 107.328 159.105 102.588C153.571 97.6159 146.363 94.8779 138.811 94.8779C127.794 94.8779 117.927 100.575 112.419 110.116C106.91 119.657 106.91 131.05 112.419 140.592L121.465 156.259C118.942 156.622 116.995 158.792 116.995 161.413V174.153C116.995 177.027 119.334 179.366 122.208 179.366H127.243V184.406C127.243 190.785 132.433 195.974 138.811 195.974C145.19 195.974 150.379 190.784 150.379 184.406L150.38 179.366ZM130.686 125.074C130.686 120.594 134.331 116.949 138.811 116.949C143.292 116.949 146.937 120.594 146.937 125.074C146.937 129.553 143.292 133.198 138.811 133.198C134.331 133.198 130.686 129.553 130.686 125.074ZM122.334 161.539H155.289V174.027H122.334V161.539ZM145.041 184.406C145.041 187.841 142.246 190.635 138.812 190.635C135.377 190.635 132.582 187.841 132.582 184.406V179.366H145.041V184.406Z" fill="#EAEADF"/>
<path d="M204.1 166.299C193.496 166.299 184.869 174.925 184.869 185.529C184.869 196.133 193.496 204.759 204.1 204.759C214.703 204.759 223.33 196.133 223.33 185.529C223.33 174.925 214.703 166.299 204.1 166.299ZM204.1 199.42C196.44 199.42 190.208 193.188 190.208 185.529C190.208 177.869 196.44 171.637 204.1 171.637C211.759 171.637 217.991 177.869 217.991 185.529C217.991 193.188 211.759 199.42 204.1 199.42Z" fill="#EAEADF"/>
<path d="M204.102 176.264C198.993 176.264 194.836 180.42 194.836 185.529C194.836 190.638 198.993 194.794 204.102 194.794C209.211 194.794 213.367 190.638 213.367 185.529C213.367 180.42 209.211 176.264 204.102 176.264ZM204.102 189.455C201.937 189.455 200.175 187.694 200.175 185.529C200.175 183.364 201.937 181.602 204.102 181.602C206.267 181.602 208.028 183.364 208.028 185.529C208.028 187.694 206.267 189.455 204.102 189.455Z" fill="#EAEADF"/>
<path d="M238.854 173.94H232.335C232.329 173.938 232.303 173.922 232.285 173.877L229.817 174.895L232.269 173.839C232.251 173.794 232.257 173.764 232.26 173.758L236.87 169.148C238.966 167.052 238.966 163.642 236.87 161.545L228.085 152.76C225.989 150.663 222.578 150.663 220.482 152.76L215.872 157.37C215.867 157.372 215.836 157.379 215.788 157.359C215.783 157.357 215.757 157.346 215.753 157.344C215.709 157.326 215.692 157.3 215.69 157.294V150.775C215.69 147.81 213.278 145.399 210.314 145.399H197.889C194.925 145.399 192.513 147.81 192.513 150.775V157.294C192.511 157.3 192.494 157.326 192.45 157.344L192.412 157.36C192.367 157.379 192.336 157.372 192.331 157.369L187.721 152.759C185.625 150.663 182.214 150.663 180.118 152.759L171.332 161.545C169.236 163.641 169.236 167.052 171.332 169.148L175.942 173.758C175.945 173.764 175.951 173.794 175.933 173.839L175.917 173.877C175.899 173.922 175.873 173.938 175.867 173.94H169.348C166.383 173.94 163.971 176.352 163.971 179.316V191.741C163.971 194.705 166.383 197.117 169.348 197.117L175.867 197.116C175.873 197.119 175.899 197.135 175.918 197.18C175.918 197.18 175.933 197.216 175.933 197.218C175.952 197.263 175.945 197.293 175.942 197.299L171.333 201.909C169.352 203.889 169.245 207.041 171.007 209.152C170.056 209.633 169.094 210.094 168.129 210.53C166.785 211.136 166.187 212.717 166.793 214.061C167.238 215.048 168.21 215.633 169.228 215.633C169.595 215.633 169.968 215.557 170.324 215.396C171.881 214.694 173.428 213.931 174.942 213.121L180.118 218.297C182.214 220.394 185.625 220.394 187.721 218.297L192.331 213.687C192.336 213.685 192.367 213.678 192.391 213.688L192.45 213.712C192.494 213.731 192.511 213.757 192.513 213.762V220.282C192.513 223.246 194.924 225.658 197.889 225.658H210.314C213.278 225.658 215.69 223.246 215.69 220.282V213.762C215.691 213.756 215.708 213.73 215.746 213.715L215.79 213.696C215.836 213.678 215.866 213.684 215.872 213.687L220.482 218.297C222.578 220.393 225.989 220.393 228.085 218.297L236.871 209.511C238.967 207.415 238.967 204.004 236.871 201.908L232.261 197.299C232.258 197.293 232.252 197.262 232.27 197.217L232.285 197.18C232.304 197.135 232.33 197.119 232.336 197.117H238.855C241.82 197.117 244.232 194.705 244.232 191.741V179.316C244.23 176.352 241.819 173.94 238.854 173.94ZM238.892 191.741C238.892 191.761 238.875 191.778 238.854 191.778H232.335C230.15 191.778 228.193 193.099 227.337 195.174C226.491 197.215 226.942 199.531 228.485 201.074L233.095 205.683C233.109 205.698 233.109 205.722 233.095 205.736L224.309 214.522C224.295 214.537 224.271 214.537 224.256 214.522L219.646 209.912C218.104 208.369 215.788 207.919 213.716 208.777C211.672 209.621 210.351 211.577 210.351 213.762V220.281C210.351 220.302 210.334 220.319 210.313 220.319H197.888C197.868 220.319 197.851 220.302 197.851 220.281V213.762C197.851 211.577 196.53 209.62 194.455 208.764C193.771 208.481 193.057 208.343 192.351 208.343C190.949 208.343 189.582 208.886 188.555 209.912L183.946 214.522C183.931 214.537 183.907 214.537 183.893 214.522L175.107 205.736C175.092 205.722 175.092 205.698 175.107 205.683L179.717 201.074C181.26 199.531 181.71 197.215 180.869 195.185L180.852 195.143C180.008 193.099 178.052 191.778 175.867 191.778H169.348C169.327 191.778 169.31 191.761 169.31 191.74V179.316C169.31 179.296 169.327 179.279 169.348 179.279H175.867C178.052 179.279 180.009 177.958 180.842 175.938L180.865 175.882C181.711 173.841 181.26 171.526 179.717 169.983L175.108 165.373C175.093 165.359 175.093 165.335 175.108 165.32L183.893 156.535C183.908 156.52 183.932 156.52 183.946 156.535L188.556 161.144C190.099 162.687 192.414 163.138 194.445 162.297L194.486 162.28C196.531 161.436 197.852 159.479 197.852 157.294V150.775C197.852 150.754 197.868 150.738 197.889 150.738H210.314C210.335 150.738 210.351 150.754 210.351 150.775V157.294C210.351 159.479 211.672 161.436 213.748 162.293C215.788 163.138 218.104 162.687 219.647 161.144L224.257 156.535C224.272 156.52 224.295 156.52 224.31 156.535L233.096 165.32C233.11 165.335 233.11 165.359 233.096 165.373L228.485 169.983C226.943 171.526 226.492 173.842 227.35 175.913C228.194 177.958 230.151 179.279 232.336 179.279H238.855C238.876 179.279 238.893 179.296 238.893 179.316V191.741H238.892Z" fill="#EAEADF"/>
<path d="M65.0518 152.596C63.5904 152.789 62.5622 154.131 62.7558 155.592C63.0477 157.797 63.4406 160.014 63.9232 162.181C64.2001 163.425 65.3031 164.271 66.5264 164.271C66.7186 164.271 66.9137 164.25 67.1094 164.207C68.5484 163.886 69.4549 162.46 69.1346 161.021C68.6854 159.005 68.3203 156.943 68.0487 154.892C67.8547 153.43 66.5115 152.402 65.0518 152.596Z" fill="#EAEADF"/>
<path d="M64.7307 147.172H64.7641C66.2231 147.172 67.4147 145.998 67.4328 144.535C67.4581 142.462 67.5738 140.369 67.7766 138.318C67.9215 136.85 66.8498 135.544 65.3827 135.399C63.9171 135.252 62.6087 136.325 62.4635 137.793C62.2457 139.997 62.1214 142.243 62.094 144.47C62.0759 145.945 63.2565 147.154 64.7307 147.172Z" fill="#EAEADF"/>
<path d="M110.295 79.7342C110.637 79.7342 110.986 79.6677 111.322 79.5274C113.229 78.7309 115.194 78.0098 117.162 77.3844C118.567 76.9377 119.344 75.4368 118.897 74.032C118.451 72.6272 116.949 71.8506 115.545 72.2969C113.428 72.9696 111.315 73.7448 109.265 74.6015C107.904 75.1699 107.262 76.7331 107.83 78.0934C108.258 79.117 109.25 79.7342 110.295 79.7342Z" fill="#EAEADF"/>
<path d="M66.3077 130.045C66.5245 130.099 66.7416 130.125 66.9555 130.125C68.1521 130.125 69.2408 129.315 69.5434 128.101C70.0434 126.095 70.6389 124.087 71.3126 122.134C71.7935 120.74 71.0535 119.221 69.6598 118.74C68.266 118.259 66.7462 118.999 66.2657 120.393C65.5411 122.493 64.9008 124.652 64.363 126.809C64.0067 128.24 64.8773 129.689 66.3077 130.045Z" fill="#EAEADF"/>
<path d="M126.813 75.0098C126.956 75.0098 127.101 74.9984 127.245 74.9745C129.283 74.6428 131.363 74.3965 133.428 74.2428C134.898 74.1331 136.001 72.8526 135.891 71.3823C135.782 69.912 134.5 68.8097 133.031 68.9186C130.812 69.0838 128.577 69.3486 126.387 69.7048C124.932 69.9419 123.945 71.3136 124.182 72.7682C124.395 74.079 125.528 75.0098 126.813 75.0098Z" fill="#EAEADF"/>
<path d="M109.686 210.617C108.458 210.068 107.238 209.475 106.036 208.853C107.16 207.114 108.076 205.209 108.735 203.163C109.187 201.76 108.416 200.256 107.013 199.804C105.609 199.352 104.106 200.123 103.654 201.526C101.168 209.239 94.0516 214.42 85.9445 214.42C75.6851 214.42 67.3388 206.074 67.3388 195.815C67.3388 185.555 75.6854 177.209 85.9445 177.209C94.1762 177.209 101.524 182.728 103.812 190.63C104.222 192.046 105.702 192.862 107.119 192.452C108.535 192.042 109.351 190.561 108.941 189.145C105.995 178.974 96.5387 171.87 85.9448 171.87C81.5503 171.87 77.4319 173.065 73.8881 175.14C73.2559 173.761 72.6644 172.357 72.1248 170.948C71.5977 169.571 70.0541 168.883 68.6774 169.41C67.3007 169.937 66.612 171.481 67.1391 172.857C67.8567 174.731 68.661 176.594 69.5266 178.41C64.8975 182.778 62 188.963 62 195.815C62 209.018 72.7416 219.759 85.9445 219.759C92.3204 219.759 98.2173 217.265 102.572 213.062C104.187 213.929 105.84 214.745 107.505 215.491C107.859 215.649 108.23 215.724 108.594 215.724C109.615 215.724 110.589 215.136 111.033 214.144C111.635 212.799 111.032 211.22 109.686 210.617Z" fill="#EAEADF"/>
<path d="M160.094 77.2699C160.807 77.4923 161.52 77.729 162.229 77.976C160.836 81.1013 160.055 84.5573 160.055 88.1941C160.055 102.086 171.357 113.388 185.249 113.388C190.716 113.388 195.826 111.655 199.998 108.649C200.637 109.711 201.25 110.79 201.831 111.878C201.639 112.097 201.46 112.328 201.312 112.585L195.18 123.205C194.381 124.589 194.381 126.308 195.18 127.692L201.312 138.312C202.111 139.696 203.6 140.556 205.198 140.556H217.461C219.06 140.556 220.549 139.696 221.347 138.312L227.479 127.692C228.278 126.308 228.278 124.589 227.479 123.204L221.347 112.584C220.548 111.2 219.059 110.34 217.461 110.34H206.979C206.928 110.155 206.865 109.971 206.772 109.793C205.922 108.175 205 106.573 204.033 105.013C206.747 101.976 208.75 98.2481 209.751 94.0514C210.092 92.6175 209.207 91.1778 207.773 90.8361C206.338 90.4926 204.899 91.3796 204.557 92.8139C202.419 101.784 194.479 108.048 185.249 108.048C174.301 108.048 165.394 99.1414 165.394 88.1934C165.394 77.2453 174.301 68.3384 185.249 68.3384C193.768 68.3384 201.326 73.7605 204.055 81.8306C204.528 83.2272 206.044 83.9768 207.439 83.5041C208.836 83.0318 209.585 81.517 209.113 80.1204C205.649 69.8803 196.059 63 185.249 63C176.933 63 169.549 67.0518 164.958 73.2821C163.873 72.8874 162.779 72.5148 161.683 72.1731C160.276 71.7339 158.779 72.5191 158.34 73.9264C157.902 75.334 158.687 76.831 160.094 77.2699ZM222.61 125.449L216.97 135.217H205.69L200.05 125.449L205.69 115.68H216.97L222.61 125.449Z" fill="#EAEADF"/>
<path d="M158.389 214.091C156.402 214.656 154.365 215.14 152.333 215.53C150.885 215.808 149.937 217.206 150.214 218.654C150.459 219.932 151.578 220.821 152.833 220.821C153 220.821 153.169 220.806 153.339 220.773C155.523 220.354 157.714 219.833 159.85 219.225C161.268 218.822 162.09 217.345 161.687 215.927C161.283 214.51 159.807 213.688 158.389 214.091Z" fill="#EAEADF"/>
<path d="M142.455 215.829C140.394 215.964 138.301 216.009 136.232 215.963C134.758 215.93 133.537 217.097 133.504 218.571C133.474 219.872 134.381 220.977 135.608 221.24C135.772 221.276 135.94 221.296 136.113 221.3C138.336 221.35 140.588 221.301 142.804 221.156C144.275 221.06 145.389 219.789 145.293 218.318C145.196 216.847 143.926 215.733 142.455 215.829Z" fill="#EAEADF"/>
<path d="M125.499 215.571C123.467 215.188 121.428 214.71 119.439 214.15C118.02 213.751 116.546 214.578 116.147 215.997C115.748 217.416 116.575 218.89 117.994 219.289C120.132 219.891 122.325 220.405 124.51 220.817C124.677 220.848 124.844 220.863 125.007 220.863C126.266 220.863 127.386 219.97 127.628 218.688C127.901 217.24 126.948 215.844 125.499 215.571Z" fill="#EAEADF"/>
<path d="M143.806 74.2155C145.873 74.3582 147.954 74.5934 149.993 74.9138C150.134 74.9358 150.273 74.9465 150.411 74.9465C151.702 74.9465 152.838 74.0072 153.045 72.6914C153.274 71.2349 152.279 69.8686 150.822 69.6397C148.631 69.2952 146.394 69.0425 144.174 68.8891C142.706 68.7891 141.429 69.8974 141.327 71.3684C141.225 72.8394 142.335 74.114 143.806 74.2155Z" fill="#EAEADF"/>
<path d="M94.4766 187.282C93.4341 186.24 91.7438 186.24 90.7017 187.282L85.9448 192.039L81.1876 187.282C80.1451 186.24 78.4549 186.24 77.4127 187.282C76.3702 188.325 76.3702 190.015 77.4127 191.057L82.1696 195.814L77.4127 200.571C76.3702 201.613 76.3702 203.304 77.4127 204.346C77.9338 204.867 78.6172 205.128 79.3002 205.128C79.9832 205.128 80.6665 204.867 81.1876 204.346L85.9445 199.589L90.7013 204.346C91.2224 204.867 91.9058 205.128 92.5888 205.128C93.2718 205.128 93.9551 204.867 94.4762 204.346C95.5187 203.303 95.5187 201.613 94.4762 200.571L89.7193 195.814L94.4762 191.057C95.519 190.015 95.519 188.325 94.4766 187.282Z" fill="#EAEADF"/>
<path d="M192.998 81.3005L183.373 90.9253L177.503 85.0544C176.46 84.0119 174.77 84.0119 173.728 85.0544C172.685 86.0969 172.685 87.7871 173.728 88.8293L181.486 96.5876C182.007 97.109 182.69 97.3695 183.373 97.3695C184.056 97.3695 184.74 97.109 185.261 96.5876L196.773 85.0754C197.816 84.0329 197.816 82.3426 196.773 81.3005C195.731 80.2577 194.041 80.258 192.998 81.3005Z" fill="#EAEADF"/>
</g>
<defs>
<clipPath id="clip0_6144_10300">
<rect width="308.25" height="351" fill="white"/>
</clipPath>
</defs>
</svg>
